<?xml version="1.0" encoding="utf-8"?>
<!-- Generator: Adobe Illustrator 15.0.2, SVG Export Plug-In . SVG Version: 6.00 Build 0)  -->
<!DOCTYPE svg PUBLIC "-//W3C//DTD SVG 1.1//EN" "http://www.w3.org/Graphics/SVG/1.1/DTD/svg11.dtd">
<svg version="1.1" xmlns="http://www.w3.org/2000/svg" xmlns:xlink="http://www.w3.org/1999/xlink" x="0px" y="0px"
	 width="273.583px" height="237px" viewBox="0 0 273.583 237" enable-background="new 0 0 273.583 237" xml:space="preserve">
<g id="Layer_2">
</g>
<g id="Layer_1">
	<g>
		<g>
			<path d="M205.188,237H68.396L0,118.5L68.396,0h136.792l68.395,118.5L205.188,237z M70.128,234h133.328l66.663-115.5L203.456,3
				H70.128L3.464,118.5L70.128,234z"/>
		</g>
		<g>
			<path d="M109.014,148.994H91.488L68.517,78.298h16.04l15.744,49.705h0.198l15.941-49.705h16.04L109.014,148.994z"/>
			<path d="M185.654,102.062c-0.99-7.03-7.723-12.377-15.446-12.377c-13.96,0-19.208,11.882-19.208,24.258
				c0,11.783,5.248,23.665,19.208,23.665c9.506,0,14.853-6.535,16.041-15.842h15.05c-1.584,17.625-13.763,28.913-31.091,28.913
				c-21.882,0-34.753-16.338-34.753-36.735c0-20.991,12.872-37.328,34.753-37.328c15.546,0,28.615,9.109,30.497,25.447H185.654z"/>
		</g>
	</g>
</g>
</svg>
